<mxfile host="65bd71144e">
    <diagram id="tDqB0tc16G4IfYaOO2d7" name="第 1 页">
        <mxGraphModel dx="1740" dy="911" grid="1" gridSize="10" guides="1" tooltips="1" connect="1" arrows="1" fold="1" page="1" pageScale="1" pageWidth="1200" pageHeight="2400" math="0" shadow="0">
            <root>
                <mxCell id="0"/>
                <mxCell id="1" parent="0"/>
                <mxCell id="16" style="edgeStyle=orthogonalEdgeStyle;html=1;exitX=0;exitY=0;exitDx=150;exitDy=55;exitPerimeter=0;entryX=0;entryY=0;entryDx=0;entryDy=55;entryPerimeter=0;curved=1;" edge="1" parent="1" source="12" target="13">
                    <mxGeometry relative="1" as="geometry">
                        <mxPoint x="310" y="640" as="targetPoint"/>
                    </mxGeometry>
                </mxCell>
                <mxCell id="17" style="edgeStyle=orthogonalEdgeStyle;curved=1;html=1;exitX=0;exitY=0;exitDx=150;exitDy=55;exitPerimeter=0;entryX=0;entryY=0;entryDx=0;entryDy=55;entryPerimeter=0;" edge="1" parent="1" source="12" target="14">
                    <mxGeometry relative="1" as="geometry"/>
                </mxCell>
                <mxCell id="18" style="edgeStyle=orthogonalEdgeStyle;curved=1;html=1;exitX=0;exitY=0;exitDx=150;exitDy=55;exitPerimeter=0;entryX=0;entryY=0;entryDx=0;entryDy=55;entryPerimeter=0;" edge="1" parent="1" source="12" target="15">
                    <mxGeometry relative="1" as="geometry"/>
                </mxCell>
                <mxCell id="12" value="Designer" style="shape=folder;fontStyle=1;tabWidth=80;tabHeight=30;tabPosition=left;html=1;boundedLbl=1;" vertex="1" parent="1">
                    <mxGeometry x="80" y="620" width="150" height="80" as="geometry"/>
                </mxCell>
                <mxCell id="20" value="" style="edgeStyle=orthogonalEdgeStyle;curved=1;html=1;entryX=0;entryY=0;entryDx=0;entryDy=42.5;entryPerimeter=0;exitX=0;exitY=0;exitDx=150;exitDy=55;exitPerimeter=0;" edge="1" parent="1" source="13" target="19">
                    <mxGeometry relative="1" as="geometry"/>
                </mxCell>
                <mxCell id="21" style="edgeStyle=orthogonalEdgeStyle;curved=1;html=1;exitX=0;exitY=0;exitDx=150;exitDy=55;exitPerimeter=0;entryX=0;entryY=0;entryDx=0;entryDy=42.5;entryPerimeter=0;" edge="1" parent="1" source="13" target="22">
                    <mxGeometry relative="1" as="geometry">
                        <mxPoint x="540" y="500" as="targetPoint"/>
                    </mxGeometry>
                </mxCell>
                <mxCell id="13" value="UI" style="shape=folder;fontStyle=1;tabWidth=80;tabHeight=30;tabPosition=left;html=1;boundedLbl=1;" vertex="1" parent="1">
                    <mxGeometry x="340" y="510" width="150" height="80" as="geometry"/>
                </mxCell>
                <mxCell id="24" value="" style="edgeStyle=orthogonalEdgeStyle;curved=1;html=1;exitX=0;exitY=0;exitDx=150;exitDy=55;exitPerimeter=0;" edge="1" parent="1" source="14" target="23">
                    <mxGeometry relative="1" as="geometry"/>
                </mxCell>
                <mxCell id="26" value="" style="edgeStyle=orthogonalEdgeStyle;curved=1;html=1;exitX=0;exitY=0;exitDx=150;exitDy=55;exitPerimeter=0;" edge="1" parent="1" source="14" target="25">
                    <mxGeometry relative="1" as="geometry"/>
                </mxCell>
                <mxCell id="14" value="Algorithm" style="shape=folder;fontStyle=1;tabWidth=80;tabHeight=30;tabPosition=left;html=1;boundedLbl=1;" vertex="1" parent="1">
                    <mxGeometry x="340" y="620" width="150" height="80" as="geometry"/>
                </mxCell>
                <mxCell id="28" value="" style="edgeStyle=orthogonalEdgeStyle;curved=1;html=1;exitX=0;exitY=0;exitDx=150;exitDy=55;exitPerimeter=0;" edge="1" parent="1" source="15" target="27">
                    <mxGeometry relative="1" as="geometry"/>
                </mxCell>
                <mxCell id="31" value="" style="edgeStyle=orthogonalEdgeStyle;curved=1;html=1;entryX=0;entryY=0;entryDx=0;entryDy=42.5;entryPerimeter=0;exitX=0;exitY=0;exitDx=150;exitDy=55;exitPerimeter=0;" edge="1" parent="1" source="15" target="30">
                    <mxGeometry relative="1" as="geometry"/>
                </mxCell>
                <mxCell id="15" value="File" style="shape=folder;fontStyle=1;tabWidth=80;tabHeight=30;tabPosition=left;html=1;boundedLbl=1;" vertex="1" parent="1">
                    <mxGeometry x="340" y="730" width="150" height="80" as="geometry"/>
                </mxCell>
                <mxCell id="19" value="Widgets" style="shape=folder;fontStyle=1;tabWidth=80;tabHeight=30;tabPosition=left;html=1;boundedLbl=1;" vertex="1" parent="1">
                    <mxGeometry x="580" y="360" width="150" height="80" as="geometry"/>
                </mxCell>
                <mxCell id="22" value="Drawer" style="shape=folder;fontStyle=1;tabWidth=80;tabHeight=30;tabPosition=left;html=1;boundedLbl=1;" vertex="1" parent="1">
                    <mxGeometry x="580" y="460" width="150" height="80" as="geometry"/>
                </mxCell>
                <mxCell id="23" value="Kruskal" style="shape=folder;fontStyle=1;tabWidth=80;tabHeight=30;tabPosition=left;html=1;boundedLbl=1;" vertex="1" parent="1">
                    <mxGeometry x="580" y="570" width="150" height="80" as="geometry"/>
                </mxCell>
                <mxCell id="25" value="Prime" style="shape=folder;fontStyle=1;tabWidth=80;tabHeight=30;tabPosition=left;html=1;boundedLbl=1;" vertex="1" parent="1">
                    <mxGeometry x="580" y="670" width="150" height="80" as="geometry"/>
                </mxCell>
                <mxCell id="27" value="Reader" style="shape=folder;fontStyle=1;tabWidth=80;tabHeight=30;tabPosition=left;html=1;boundedLbl=1;" vertex="1" parent="1">
                    <mxGeometry x="580" y="780" width="150" height="80" as="geometry"/>
                </mxCell>
                <mxCell id="30" value="Writer" style="shape=folder;fontStyle=1;tabWidth=80;tabHeight=30;tabPosition=left;html=1;boundedLbl=1;" vertex="1" parent="1">
                    <mxGeometry x="580" y="880" width="150" height="80" as="geometry"/>
                </mxCell>
            </root>
        </mxGraphModel>
    </diagram>
</mxfile>